<?xml version="1.0" encoding="UTF-8"?>
<svg version="1.1" xmlns="http://www.w3.org/2000/svg" width="64" height="64">
<path d="M0 0 C2.7587207 1.21141428 4.85877825 2.85877825 7 5 C8.54280277 4.91428874 10.08438325 4.806188 11.625 4.6875 C15.7907244 4.62175686 17.88784887 5.1491561 21.0625 7.875 C22.79941174 9.56695637 23.91406412 10.82812824 25 13 C24.99120583 16.05597345 24.86832437 19.09908956 24.7421875 22.15234375 C25.03740121 25.41311339 25.58242906 25.96510988 28 28 C29.66255366 32.98766098 29.83282597 37.98368448 27.8125 42.875 C25.70659452 45.34399264 23.95861613 46.66157842 21 48 C18.1875 48.1875 18.1875 48.1875 16 48 C15.9071875 49.3303125 15.9071875 49.3303125 15.8125 50.6875 C14.81004136 54.77444675 13.15975486 56.30264829 10 59 C6.30057747 60.84971126 2.03761603 60.47722989 -2 60 C-4.0065438 58.67653494 -6.00628175 57.34270821 -8 56 C-10.60982943 55.68564981 -10.60982943 55.68564981 -13.4375 55.625 C-18.59791399 55.350435 -21.09184795 54.04214805 -24.7578125 50.47265625 C-27.96135304 46.67474813 -26.93722625 42.56874134 -26.7421875 37.84765625 C-27.03740121 34.58688661 -27.58242906 34.03489012 -30 32 C-31.66255366 27.01233902 -31.83282597 22.01631552 -29.8125 17.125 C-27.70659452 14.65600736 -25.95861613 13.33842158 -23 12 C-20.1875 11.8125 -20.1875 11.8125 -18 12 C-17.9071875 10.6696875 -17.9071875 10.6696875 -17.8125 9.3125 C-16.81004136 5.22555325 -15.15975486 3.69735171 -12 1 C-8.29712287 -0.85143856 -4.04094612 -0.4703092 0 0 Z M-8 26 C-8.33723206 30.03022473 -8.33723206 30.03022473 -8 34 C-5.92836371 36.24300635 -5.92836371 36.24300635 -3 37 C0.41564448 36.75007479 3.02422594 35.65320781 6 34 C6.34307189 29.96912741 6.34307189 29.96912741 6 26 C0.88079 21.57257514 -2.46581529 23.04843482 -8 26 Z " fill="#18202B" transform="translate(33,2)"/>
<path d="M0 0 C2.7587207 1.21141428 4.85877825 2.85877825 7 5 C8.54280277 4.91428874 10.08438325 4.806188 11.625 4.6875 C15.7907244 4.62175686 17.88784887 5.1491561 21.0625 7.875 C22.79941174 9.56695637 23.91406412 10.82812824 25 13 C24.99120583 16.05597345 24.86832437 19.09908956 24.7421875 22.15234375 C25.03740121 25.41311339 25.58242906 25.96510988 28 28 C29.66255366 32.98766098 29.83282597 37.98368448 27.8125 42.875 C25.70659452 45.34399264 23.95861613 46.66157842 21 48 C18.1875 48.1875 18.1875 48.1875 16 48 C15.9071875 49.3303125 15.9071875 49.3303125 15.8125 50.6875 C14.81004136 54.77444675 13.15975486 56.30264829 10 59 C6.30057747 60.84971126 2.03761603 60.47722989 -2 60 C-4.0065438 58.67653494 -6.00628175 57.34270821 -8 56 C-10.60982943 55.68564981 -10.60982943 55.68564981 -13.4375 55.625 C-18.59791399 55.350435 -21.09184795 54.04214805 -24.7578125 50.47265625 C-27.96135304 46.67474813 -26.93722625 42.56874134 -26.7421875 37.84765625 C-27.03740121 34.58688661 -27.58242906 34.03489012 -30 32 C-31.66255366 27.01233902 -31.83282597 22.01631552 -29.8125 17.125 C-27.70659452 14.65600736 -25.95861613 13.33842158 -23 12 C-20.1875 11.8125 -20.1875 11.8125 -18 12 C-17.9071875 10.6696875 -17.9071875 10.6696875 -17.8125 9.3125 C-16.81004136 5.22555325 -15.15975486 3.69735171 -12 1 C-8.29712287 -0.85143856 -4.04094612 -0.4703092 0 0 Z M-15 7 C-16.22229655 9.44459311 -16.11421724 11.02491045 -16.09765625 13.75390625 C-16.09443359 14.69041016 -16.09121094 15.62691406 -16.08789062 16.59179688 C-16.07951172 17.57212891 -16.07113281 18.55246094 -16.0625 19.5625 C-16.05798828 20.54669922 -16.05347656 21.53089844 -16.04882812 22.54492188 C-16.03683945 25.03000224 -16.01962421 27.51497096 -16 30 C-16 30.33 -16 30.66 -16 31 C-16.66 31 -17.32 31 -18 31 C-18 25.39 -18 19.78 -18 14 C-23.40447513 15.08089503 -24.50466202 16.01919841 -28 20 C-29.43304064 22.86608129 -29.30644155 24.81300783 -29 28 C-27.2344231 31.0603333 -25.49412245 33.50587755 -23 36 C-23.66 36.99 -24.32 37.98 -25 39 C-25.52406828 42.93051214 -25.14790087 44.72532696 -23.25 48.25 C-21.06399006 50.92178992 -20.12496032 51.82108898 -17 53 C-14.60664321 53.05545247 -14.60664321 53.05545247 -12.125 52.8125 C-7.49726231 52.68376352 -7.49726231 52.68376352 -5.26171875 54.10546875 C-4.78347656 54.56566406 -4.30523438 55.02585938 -3.8125 55.5 C-1.17763695 58.29300107 -1.17763695 58.29300107 2.5 58.5625 C6.61566498 57.90105384 8.78452541 56.61724676 12 54 C14.20192224 50.69711664 14.23959968 49.72537273 14.1953125 45.89453125 C14.18564453 44.42016602 14.18564453 44.42016602 14.17578125 42.91601562 C14.15902344 41.89185547 14.14226563 40.86769531 14.125 39.8125 C14.11597656 38.77673828 14.10695312 37.74097656 14.09765625 36.67382812 C14.0740786 34.11565315 14.0411703 31.55794252 14 29 C14.66 29 15.32 29 16 29 C16 34.61 16 40.22 16 46 C22.48070227 44.68105566 22.48070227 44.68105566 24.875 42.375 C26.4850022 38.97610647 27.25787364 35.73916785 27 32 C25.36547907 28.50273479 25.36547907 28.50273479 23 26 C22.34 26 21.68 26 21 26 C21.33 25.29875 21.66 24.5975 22 23.875 C23.14498919 20.58315607 23.42417325 18.46408158 23 15 C21.36564595 11.96477105 19.944447 9.71647703 17.1875 7.625 C12.53409773 6.29545649 8.97998506 6.57237016 4.5625 8.5 C3.716875 8.995 2.87125 9.49 2 10 C2 9.34 2 8.68 2 8 C2.66 8 3.32 8 4 8 C2.63016497 4.83884224 2.0109362 4.0072908 -1 2 C-7.72540749 1.22823193 -10.28824769 2.1733269 -15 7 Z " fill="#171928" transform="translate(33,2)"/>
<path d="M0 0 C0 5.61 0 11.22 0 17 C2.475 17.99 2.475 17.99 5 19 C6.78987319 20.00860007 8.56117681 21.05085511 10.3125 22.125 C11.19550781 22.66382812 12.07851563 23.20265625 12.98828125 23.7578125 C13.65214844 24.16773437 14.31601562 24.57765625 15 25 C13.375 26.5625 13.375 26.5625 11 28 C5.98556221 27.86167068 2.51889843 25.84907546 -1.6875 23.25 C-2.80511719 22.57453125 -3.92273438 21.8990625 -5.07421875 21.203125 C-8.93044727 18.29936948 -10.7255946 15.84243624 -11.4375 11.0625 C-10.8806713 7.16469912 -9.43417323 5.06010349 -7 2 C-4 0 -4 0 0 0 Z " fill="#2DEE94" transform="translate(15,16)"/>
<path d="M0 0 C4.14623807 1.79042098 6.17613802 3.87231236 8 8 C8.40677966 13.18644068 8.40677966 13.18644068 7 16 C3.54387965 14.77363471 0.61156578 13.15641843 -2.5 11.25 C-5.8005575 9.30383872 -5.8005575 9.30383872 -9.5 9.375 C-10.325 9.91125 -11.15 10.4475 -12 11 C-13.55754465 11.88379066 -15.12051767 12.7580527 -16.6875 13.625 C-17.45449219 14.07101563 -18.22148437 14.51703125 -19.01171875 14.9765625 C-21 16 -21 16 -23 16 C-23 13.69 -23 11.38 -23 9 C-20.48911326 7.48080802 -17.96843871 5.9851147 -15.4375 4.5 C-14.73302734 4.07074219 -14.02855469 3.64148438 -13.30273438 3.19921875 C-8.69375076 0.52303472 -5.47331808 -0.61872291 0 0 Z " fill="#2DED94" transform="translate(48,9)"/>
<path d="M0 0 C3 1.875 3 1.875 5 4 C5 4.66 5 5.32 5 6 C2.4453125 7.7265625 2.4453125 7.7265625 -0.875 9.625 C-1.96554688 10.25664062 -3.05609375 10.88828125 -4.1796875 11.5390625 C-7 13 -7 13 -9 13 C-9 18.94 -9 24.88 -9 31 C-10.98 30.01 -12.96 29.02 -15 28 C-15.14611313 24.62546102 -15.23433467 21.25174234 -15.3125 17.875 C-15.3753418 16.44800781 -15.3753418 16.44800781 -15.43945312 14.9921875 C-15.57759974 7.03494261 -15.57759974 7.03494261 -12.60546875 3.3828125 C-8.63963963 -0.24410768 -5.28056685 -0.75725146 0 0 Z " fill="#2EF096" transform="translate(32,4)"/>
<path d="M0 0 C3.45612035 1.22636529 6.38843422 2.84358157 9.5 4.75 C12.8005575 6.69616128 12.8005575 6.69616128 16.5 6.625 C17.325 6.08875 18.15 5.5525 19 5 C20.55754465 4.11620934 22.12051767 3.2419473 23.6875 2.375 C24.45449219 1.92898437 25.22148438 1.48296875 26.01171875 1.0234375 C28 0 28 0 30 0 C30 2.31 30 4.62 30 7 C13.81687892 17.10581814 13.81687892 17.10581814 7 16 C3.728925 14.39419955 1.77271493 13.05370218 -0.375 10.125 C-1.4048466 6.62352155 -1.65178948 3.30357895 0 0 Z " fill="#2DEE95" transform="translate(9,39)"/>
<path d="M0 0 C1.98 0.99 3.96 1.98 6 3 C6.11660824 6.39554235 6.18738372 9.79056679 6.25 13.1875 C6.30027344 14.62706055 6.30027344 14.62706055 6.3515625 16.09570312 C6.45081704 23.26684374 6.45081704 23.26684374 4.09765625 27.09375 C0.81645649 30.07554792 -0.97986658 30.88871272 -5.4375 31.375 C-9.56722139 30.94029249 -11.13884777 29.94785381 -14 27 C-14 26.34 -14 25.68 -14 25 C-11.4453125 23.2734375 -11.4453125 23.2734375 -8.125 21.375 C-6.48917969 20.42753906 -6.48917969 20.42753906 -4.8203125 19.4609375 C-2 18 -2 18 0 18 C0 12.06 0 6.12 0 0 Z " fill="#2EF196" transform="translate(41,29)"/>
<path d="M0 0 C3.7470725 1.06929759 6.6041454 2.62430935 9.91796875 4.671875 C11.03558594 5.34734375 12.15320313 6.0228125 13.3046875 6.71875 C16.28561617 8.96340123 17.72390853 10.53610716 19.23046875 13.921875 C19.23046875 18.89186943 19.00822478 20.9064713 15.98046875 24.859375 C13.23046875 26.921875 13.23046875 26.921875 8.23046875 27.921875 C8.23046875 22.311875 8.23046875 16.701875 8.23046875 10.921875 C5.75546875 9.931875 5.75546875 9.931875 3.23046875 8.921875 C1.60025758 7.92145924 -0.00520013 6.87947547 -1.58203125 5.796875 C-2.37222656 5.25804687 -3.16242187 4.71921875 -3.9765625 4.1640625 C-4.56824219 3.75414062 -5.15992188 3.34421875 -5.76953125 2.921875 C-3.92149438 0.35515713 -3.23001072 -0.09111455 0 0 Z " fill="#2EF096" transform="translate(40.76953125,20.078125)"/>
<path d="M0 0 C2.89126805 1.37839523 5.69840779 2.85356034 8.5 4.40625 C9.47582031 4.94507813 10.45164062 5.48390625 11.45703125 6.0390625 C12.19308594 6.44898438 12.92914063 6.85890625 13.6875 7.28125 C13.3575 7.94125 13.0275 8.60125 12.6875 9.28125 C9.6269139 8.1683096 7.02511858 6.86338154 4.3125 5.09375 C0.58242331 2.87209993 -2.09979129 3.24956623 -6.3125 4.28125 C-6.6425 3.62125 -6.9725 2.96125 -7.3125 2.28125 C-2.99040399 -0.92944989 -2.99040399 -0.92944989 0 0 Z " fill="#1A3436" transform="translate(41.3125,17.71875)"/>
<path d="M0 0 C3.85025879 0.60355408 6.86101159 1.76772603 10.3125 3.5625 C11.19550781 4.01753906 12.07851563 4.47257812 12.98828125 4.94140625 C13.65214844 5.29074219 14.31601562 5.64007813 15 6 C15 6.99 15 7.98 15 9 C11.32305352 7.62859834 8.04681411 5.96304199 4.6875 3.9375 C3.80449219 3.41027344 2.92148438 2.88304687 2.01171875 2.33984375 C1.34785156 1.89769531 0.68398437 1.45554688 0 1 C0 0.67 0 0.34 0 0 Z " fill="#1A3335" transform="translate(10,38)"/>
<path d="M0 0 C-3.19990508 2.74277578 -6.00499382 4.6302836 -10 6 C-10 5.01 -10 4.02 -10 3 C-3.375 -1.125 -3.375 -1.125 0 0 Z " fill="#1A3637" transform="translate(36,49)"/>
<path d="M0 0 C-2.68841859 2.25245881 -4.64641875 3.88213958 -8 5 C-8 4.01 -8 3.02 -8 2 C-3.71900826 -1.23966942 -3.71900826 -1.23966942 0 0 Z " fill="#1A3737" transform="translate(36,12)"/>
</svg>
