<?xml version="1.0" encoding="UTF-8"?>
<!DOCTYPE svg PUBLIC "-//W3C//DTD SVG 1.1//EN" "http://www.w3.org/Graphics/SVG/1.1/DTD/svg11.dtd">
<svg xmlns="http://www.w3.org/2000/svg" version="1.1" width="2000px" height="2000px" style="shape-rendering:geometricPrecision; text-rendering:geometricPrecision; image-rendering:optimizeQuality; fill-rule:evenodd; clip-rule:evenodd" xmlns:xlink="http://www.w3.org/1999/xlink">
<g><path style="opacity:0.977" fill="#0079b4" d="M 423.5,398.5 C 408.675,440.313 393.675,481.979 378.5,523.5C 378.5,481.833 378.5,440.167 378.5,398.5C 393.5,398.5 408.5,398.5 423.5,398.5 Z"/></g>
<g><path style="opacity:0.992" fill="#007bb6" d="M 423.5,398.5 C 442.167,398.5 460.833,398.5 479.5,398.5C 452.299,475.436 425.299,552.436 398.5,629.5C 392.815,636.177 386.481,642.177 379.5,647.5C 378.5,606.172 378.167,564.839 378.5,523.5C 393.675,481.979 408.675,440.313 423.5,398.5 Z"/></g>
<g><path style="opacity:0.987" fill="#007eb8" d="M 479.5,398.5 C 524.167,398.5 568.833,398.5 613.5,398.5C 607.636,415.426 601.969,432.426 596.5,449.5C 530.805,509.863 464.805,569.863 398.5,629.5C 425.299,552.436 452.299,475.436 479.5,398.5 Z"/></g>
<g><path style="opacity:0.934" fill="#0081bc" d="M 613.5,398.5 C 626.184,398.168 638.851,398.501 651.5,399.5C 633.172,416.16 614.839,432.827 596.5,449.5C 601.969,432.426 607.636,415.426 613.5,398.5 Z"/></g>
<g><path style="opacity:0.996" fill="#038cc5" d="M 972.5,398.5 C 897.03,611.576 821.364,824.576 745.5,1037.5C 726.549,996.358 716.049,953.025 714,907.5C 713.5,887.836 713.333,868.169 713.5,848.5C 698.167,848.5 682.833,848.5 667.5,848.5C 705.109,743.612 742.443,638.612 779.5,533.5C 828.427,488.683 877.427,443.85 926.5,399C 941.83,398.5 957.163,398.333 972.5,398.5 Z"/></g>
<g><path style="opacity:0.998" fill="#0492c9" d="M 972.5,398.5 C 1021.17,398.5 1069.83,398.5 1118.5,398.5C 1027.54,655.726 936.204,912.726 844.5,1169.5C 801.793,1132.74 768.793,1088.74 745.5,1037.5C 821.364,824.576 897.03,611.576 972.5,398.5 Z"/></g>
<g><path style="opacity:0.998" fill="#0596cd" d="M 1118.5,398.5 C 1140.83,398.5 1163.17,398.5 1185.5,398.5C 1169.5,444.155 1153.5,489.822 1137.5,535.5C 1129.65,541.694 1121.81,548.028 1114,554.5C 1113.5,570.83 1113.33,587.163 1113.5,603.5C 1041.46,805.274 969.796,1007.27 898.5,1209.5C 879.086,1198.09 861.086,1184.75 844.5,1169.5C 936.204,912.726 1027.54,655.726 1118.5,398.5 Z"/></g>
<g><path style="opacity:0.984" fill="#0599cf" d="M 1185.5,398.5 C 1206.5,398.5 1227.5,398.5 1248.5,398.5C 1240.7,421.896 1232.7,445.23 1224.5,468.5C 1195.68,491.075 1166.68,513.409 1137.5,535.5C 1153.5,489.822 1169.5,444.155 1185.5,398.5 Z"/></g>
<g><path style="opacity:0.972" fill="#069bd1" d="M 1248.5,398.5 C 1254.83,398.5 1261.17,398.5 1267.5,398.5C 1261.83,415.177 1256.16,431.844 1250.5,448.5C 1241.83,455.167 1233.17,461.833 1224.5,468.5C 1232.7,445.23 1240.7,421.896 1248.5,398.5 Z"/></g>
<g><path style="opacity:0.959" fill="#079cd2" d="M 1267.5,398.5 C 1273.83,398.5 1280.17,398.5 1286.5,398.5C 1282.77,408.024 1279.44,417.691 1276.5,427.5C 1267.87,434.489 1259.21,441.489 1250.5,448.5C 1256.16,431.844 1261.83,415.177 1267.5,398.5 Z"/></g>
<g><path style="opacity:0.897" fill="#099dd3" d="M 1286.5,398.5 C 1295.52,398.168 1304.52,398.502 1313.5,399.5C 1301.29,409.094 1288.95,418.427 1276.5,427.5C 1279.44,417.691 1282.77,408.024 1286.5,398.5 Z"/></g>
<g><path style="opacity:0.995" fill="#22aadc" d="M 1557.5,513.5 C 1479.17,733.5 1400.83,953.5 1322.5,1173.5C 1322.5,1121.5 1322.5,1069.5 1322.5,1017.5C 1385.54,841.393 1448.2,665.06 1510.5,488.5C 1525.84,476.399 1541.34,464.399 1557,452.5C 1557.5,472.831 1557.67,493.164 1557.5,513.5 Z"/></g>
<g><path style="opacity:0.994" fill="#1fa9dc" d="M 1510.5,488.5 C 1448.2,665.06 1385.54,841.393 1322.5,1017.5C 1322.5,1000.5 1322.5,983.5 1322.5,966.5C 1377.21,814.055 1431.54,661.388 1485.5,508.5C 1493.25,501.123 1501.58,494.457 1510.5,488.5 Z"/></g>
<g><path style="opacity:0.993" fill="#1da8db" d="M 1485.5,508.5 C 1431.54,661.388 1377.21,814.055 1322.5,966.5C 1322.5,953.5 1322.5,940.5 1322.5,927.5C 1370.87,792.726 1418.87,657.726 1466.5,522.5C 1472.29,517.104 1478.62,512.437 1485.5,508.5 Z"/></g>
<g><path style="opacity:0.996" fill="#27acdf" d="M 1557.5,513.5 C 1557.5,557.5 1557.5,601.5 1557.5,645.5C 1479.17,865.5 1400.83,1085.5 1322.5,1305.5C 1322.5,1261.5 1322.5,1217.5 1322.5,1173.5C 1400.83,953.5 1479.17,733.5 1557.5,513.5 Z"/></g>
<g><path style="opacity:0.991" fill="#1ba6d9" d="M 1466.5,522.5 C 1418.87,657.726 1370.87,792.726 1322.5,927.5C 1322.5,888.5 1322.5,849.5 1322.5,810.5C 1351.87,729.393 1380.87,648.06 1409.5,566.5C 1428.5,551.833 1447.5,537.167 1466.5,522.5 Z"/></g>
<g><path style="opacity:0.994" fill="#0288c2" d="M 779.5,533.5 C 742.443,638.612 705.109,743.612 667.5,848.5C 656.167,848.5 644.833,848.5 633.5,848.5C 665.165,759.172 696.832,669.838 728.5,580.5C 745.174,564.493 762.174,548.827 779.5,533.5 Z"/></g>
<g><path style="opacity:0.986" fill="#18a4d8" d="M 1409.5,566.5 C 1380.87,648.06 1351.87,729.393 1322.5,810.5C 1322.5,796.833 1322.5,783.167 1322.5,769.5C 1345.07,707.79 1367.07,645.79 1388.5,583.5C 1395.19,577.484 1402.19,571.818 1409.5,566.5 Z"/></g>
<g><path style="opacity:0.991" fill="#0286bf" d="M 728.5,580.5 C 696.832,669.838 665.165,759.172 633.5,848.5C 600.167,848.5 566.833,848.5 533.5,848.5C 549.16,803.844 564.826,759.177 580.5,714.5C 629.529,669.47 678.862,624.803 728.5,580.5 Z"/></g>
<g><path style="opacity:0.984" fill="#19a4d8" d="M 1388.5,583.5 C 1367.07,645.79 1345.07,707.79 1322.5,769.5C 1322.5,766.167 1322.5,762.833 1322.5,759.5C 1343.54,702.055 1364.21,644.389 1384.5,586.5C 1385.26,584.738 1386.6,583.738 1388.5,583.5 Z"/></g>
<g><path style="opacity:0.974" fill="#15a3d7" d="M 1384.5,586.5 C 1364.21,644.389 1343.54,702.055 1322.5,759.5C 1322.5,731.167 1322.5,702.833 1322.5,674.5C 1329.74,656.124 1336.4,637.457 1342.5,618.5C 1356.21,607.457 1370.21,596.79 1384.5,586.5 Z"/></g>
<g><path style="opacity:0.998" fill="#0599cf" d="M 1113.5,603.5 C 1113.5,662.833 1113.5,722.167 1113.5,781.5C 1059.13,933.619 1005.13,1085.95 951.5,1238.5C 932.704,1230.61 915.037,1220.94 898.5,1209.5C 969.796,1007.27 1041.46,805.274 1113.5,603.5 Z"/></g>
<g><path style="opacity:0.939" fill="#14a2d6" d="M 1342.5,618.5 C 1336.4,637.457 1329.74,656.124 1322.5,674.5C 1322.33,660.829 1322.5,647.163 1323,633.5C 1329.38,628.285 1335.88,623.285 1342.5,618.5 Z"/></g>
<g><path style="opacity:0.996" fill="#2aafe1" d="M 1557.5,645.5 C 1557.5,652.833 1557.5,660.167 1557.5,667.5C 1478.36,890.243 1399.03,1112.91 1319.5,1335.5C 1321.65,1325.63 1322.65,1315.63 1322.5,1305.5C 1400.83,1085.5 1479.17,865.5 1557.5,645.5 Z"/></g>
<g><path style="opacity:0.994" fill="#2bafe1" d="M 1557.5,667.5 C 1557.5,671.167 1557.5,674.833 1557.5,678.5C 1435.26,1021.33 1313.26,1364.33 1191.5,1707.5C 1190.33,1708.34 1189,1709.01 1187.5,1709.5C 1226.83,1598.5 1266.17,1487.5 1305.5,1376.5C 1311.58,1363.33 1316.25,1349.66 1319.5,1335.5C 1399.03,1112.91 1478.36,890.243 1557.5,667.5 Z"/></g>
<g><path style="opacity:0.999" fill="#2bb0e1" d="M 1557.5,678.5 C 1557.5,692.5 1557.5,706.5 1557.5,720.5C 1440.99,1046.89 1324.99,1373.55 1209.5,1700.5C 1203.78,1703.35 1197.78,1705.69 1191.5,1707.5C 1313.26,1364.33 1435.26,1021.33 1557.5,678.5 Z"/></g>
<g><path style="opacity:0.994" fill="#0082bc" d="M 580.5,714.5 C 564.826,759.177 549.16,803.844 533.5,848.5C 523.833,848.5 514.167,848.5 504.5,848.5C 504.298,874.844 504.631,901.177 505.5,927.5C 464.833,1041.17 424.167,1154.83 383.5,1268.5C 381.141,1254.4 379.641,1240.07 379,1225.5C 378.5,1170.5 378.333,1115.5 378.5,1060.5C 407.401,981.135 435.735,901.469 463.5,821.5C 502.174,785.493 541.174,749.826 580.5,714.5 Z"/></g>
<g><path style="opacity:0.998" fill="#2fb1e2" d="M 1557.5,720.5 C 1557.5,771.833 1557.5,823.167 1557.5,874.5C 1463.33,1139.02 1369.33,1403.68 1275.5,1668.5C 1254.3,1680.77 1232.3,1691.43 1209.5,1700.5C 1324.99,1373.55 1440.99,1046.89 1557.5,720.5 Z"/></g>
<g><path style="opacity:0.997" fill="#069bd1" d="M 1113.5,781.5 C 1113.5,799.167 1113.5,816.833 1113.5,834.5C 1064.46,971.274 1015.8,1108.27 967.5,1245.5C 961.77,1243.93 956.437,1241.6 951.5,1238.5C 1005.13,1085.95 1059.13,933.619 1113.5,781.5 Z"/></g>
<g><path style="opacity:0.986" fill="#0080ba" d="M 463.5,821.5 C 435.735,901.469 407.401,981.135 378.5,1060.5C 378.333,1006.5 378.5,952.499 379,898.5C 406.738,872.258 434.904,846.591 463.5,821.5 Z"/></g>
<g><path style="opacity:0.997" fill="#079cd2" d="M 1113.5,834.5 C 1113.5,852.167 1113.5,869.833 1113.5,887.5C 1069.8,1008.94 1026.46,1130.61 983.5,1252.5C 977.869,1250.68 972.535,1248.35 967.5,1245.5C 1015.8,1108.27 1064.46,971.274 1113.5,834.5 Z"/></g>
<g><path style="opacity:0.998" fill="#33b4e4" d="M 1557.5,874.5 C 1557.5,924.833 1557.5,975.167 1557.5,1025.5C 1486.6,1223.54 1416.26,1421.88 1346.5,1620.5C 1324.08,1638.22 1300.41,1654.22 1275.5,1668.5C 1369.33,1403.68 1463.33,1139.02 1557.5,874.5 Z"/></g>
<g><path style="opacity:0.996" fill="#0a9dd3" d="M 1113.5,887.5 C 1113.5,938.833 1113.5,990.167 1113.5,1041.5C 1085.93,1116.86 1058.93,1192.53 1032.5,1268.5C 1015.91,1263.97 999.574,1258.64 983.5,1252.5C 1026.46,1130.61 1069.8,1008.94 1113.5,887.5 Z"/></g>
<g><path style="opacity:0.996" fill="#0185bf" d="M 505.5,927.5 C 510.225,985.401 523.892,1041.07 546.5,1094.5C 507.5,1203.83 468.5,1313.17 429.5,1422.5C 405.52,1373.88 390.186,1322.55 383.5,1268.5C 424.167,1154.83 464.833,1041.17 505.5,927.5 Z"/></g>
<g><path style="opacity:0.997" fill="#37b6e6" d="M 1557.5,1025.5 C 1557.5,1044.17 1557.5,1062.83 1557.5,1081.5C 1495.93,1252.86 1434.93,1424.53 1374.5,1596.5C 1365.95,1605.44 1356.62,1613.44 1346.5,1620.5C 1416.26,1421.88 1486.6,1223.54 1557.5,1025.5 Z"/></g>
<g><path style="opacity:0.993" fill="#0fa0d5" d="M 1113.5,1041.5 C 1113.5,1092.83 1113.5,1144.17 1113.5,1195.5C 1103.13,1222.94 1093.13,1250.61 1083.5,1278.5C 1066.3,1276.19 1049.3,1272.86 1032.5,1268.5C 1058.93,1192.53 1085.93,1116.86 1113.5,1041.5 Z"/></g>
<g><path style="opacity:0.996" fill="#38b7e6" d="M 1557.5,1081.5 C 1557.5,1094.5 1557.5,1107.5 1557.5,1120.5C 1502.73,1272.47 1448.73,1424.8 1395.5,1577.5C 1388.8,1584.2 1381.8,1590.53 1374.5,1596.5C 1434.93,1424.53 1495.93,1252.86 1557.5,1081.5 Z"/></g>
<g><path style="opacity:0.996" fill="#0288c2" d="M 546.5,1094.5 C 553.158,1108.12 559.825,1121.79 566.5,1135.5C 527.065,1244.13 488.398,1353.13 450.5,1462.5C 442.484,1449.81 435.484,1436.47 429.5,1422.5C 468.5,1313.17 507.5,1203.83 546.5,1094.5 Z"/></g>
<g><path style="opacity:0.996" fill="#38b7e7" d="M 1557.5,1120.5 C 1557.5,1124.5 1557.5,1128.5 1557.5,1132.5C 1505.13,1278.61 1453.13,1424.94 1401.5,1571.5C 1399.83,1573.83 1397.83,1575.83 1395.5,1577.5C 1448.73,1424.8 1502.73,1272.47 1557.5,1120.5 Z"/></g>
<g><path style="opacity:0.995" fill="#3bb8e7" d="M 1557.5,1132.5 C 1557.5,1139.17 1557.5,1145.83 1557.5,1152.5C 1508.93,1287.54 1460.93,1422.88 1413.5,1558.5C 1410.21,1563.46 1406.21,1567.79 1401.5,1571.5C 1453.13,1424.94 1505.13,1278.61 1557.5,1132.5 Z"/></g>
<g><path style="opacity:0.996" fill="#038cc4" d="M 566.5,1135.5 C 593.556,1183.24 626.223,1226.91 664.5,1266.5C 626.675,1373.31 588.675,1479.98 550.5,1586.5C 541.588,1579.09 533.088,1571.09 525,1562.5C 496.483,1531.83 471.65,1498.5 450.5,1462.5C 488.398,1353.13 527.065,1244.13 566.5,1135.5 Z"/></g>
<g><path style="opacity:0.986" fill="#3cb8e8" d="M 1557.5,1152.5 C 1565.98,1304.58 1520.48,1437.58 1421,1551.5C 1418.63,1554.04 1416.13,1556.37 1413.5,1558.5C 1460.93,1422.88 1508.93,1287.54 1557.5,1152.5 Z"/></g>
<g><path style="opacity:0.983" fill="#13a2d6" d="M 1113.5,1195.5 C 1113.5,1208.5 1113.5,1221.5 1113.5,1234.5C 1107.85,1249.76 1102.19,1265.1 1096.5,1280.5C 1092.07,1280.2 1087.74,1279.53 1083.5,1278.5C 1093.13,1250.61 1103.13,1222.94 1113.5,1195.5 Z"/></g>
<g><path style="opacity:0.961" fill="#14a2d7" d="M 1113.5,1234.5 C 1113.5,1250.5 1113.5,1266.5 1113.5,1282.5C 1107.81,1281.98 1102.14,1281.31 1096.5,1280.5C 1102.19,1265.1 1107.85,1249.76 1113.5,1234.5 Z"/></g>
<g><path style="opacity:0.997" fill="#0492c9" d="M 664.5,1266.5 C 682.368,1283.2 700.702,1299.37 719.5,1315C 738.793,1329.47 758.459,1343.31 778.5,1356.5C 741.538,1461.73 704.204,1566.73 666.5,1671.5C 623.889,1648.53 585.222,1620.2 550.5,1586.5C 588.675,1479.98 626.675,1373.31 664.5,1266.5 Z"/></g>
<g><path style="opacity:0.997" fill="#0596cd" d="M 778.5,1356.5 C 796.876,1367.69 815.543,1378.35 834.5,1388.5C 797.833,1492.17 761.167,1595.83 724.5,1699.5C 704.334,1691.75 685.001,1682.42 666.5,1671.5C 704.204,1566.73 741.538,1461.73 778.5,1356.5 Z"/></g>
<g><path style="opacity:0.992" fill="#2aafe1" d="M 1305.5,1376.5 C 1266.17,1487.5 1226.83,1598.5 1187.5,1709.5C 1184.58,1710.7 1181.58,1711.7 1178.5,1712.5C 1215.36,1609.25 1252.03,1505.91 1288.5,1402.5C 1294.2,1393.81 1299.87,1385.14 1305.5,1376.5 Z"/></g>
<g><path style="opacity:0.997" fill="#0599cf" d="M 834.5,1388.5 C 852.71,1396.77 871.043,1404.77 889.5,1412.5C 852.77,1515.02 816.437,1617.69 780.5,1720.5C 761.293,1714.66 742.626,1707.66 724.5,1699.5C 761.167,1595.83 797.833,1492.17 834.5,1388.5 Z"/></g>
<g><path style="opacity:0.995" fill="#28acdf" d="M 1288.5,1402.5 C 1252.03,1505.91 1215.36,1609.25 1178.5,1712.5C 1161.56,1718.81 1144.23,1724.14 1126.5,1728.5C 1158.77,1636.02 1191.44,1543.69 1224.5,1451.5C 1249.47,1440 1270.81,1423.67 1288.5,1402.5 Z"/></g>
<g><path style="opacity:0.997" fill="#069bd1" d="M 889.5,1412.5 C 894.833,1414.5 900.167,1416.5 905.5,1418.5C 869.214,1520.74 833.214,1623.07 797.5,1725.5C 791.758,1724.03 786.092,1722.36 780.5,1720.5C 816.437,1617.69 852.77,1515.02 889.5,1412.5 Z"/></g>
<g><path style="opacity:0.997" fill="#079cd2" d="M 905.5,1418.5 C 911.162,1420.5 916.828,1422.5 922.5,1424.5C 886.104,1526.02 850.104,1627.69 814.5,1729.5C 808.717,1728.64 803.05,1727.3 797.5,1725.5C 833.214,1623.07 869.214,1520.74 905.5,1418.5 Z"/></g>
<g><path style="opacity:0.997" fill="#0a9dd3" d="M 922.5,1424.5 C 938.652,1430.11 954.986,1435.11 971.5,1439.5C 935.769,1539.69 900.435,1640.03 865.5,1740.5C 848.137,1737.96 831.137,1734.3 814.5,1729.5C 850.104,1627.69 886.104,1526.02 922.5,1424.5 Z"/></g>
<g><path style="opacity:0.997" fill="#0fa0d5" d="M 971.5,1439.5 C 988.327,1443.96 1005.33,1447.62 1022.5,1450.5C 987.5,1549.17 952.5,1647.83 917.5,1746.5C 900.047,1745.48 882.713,1743.48 865.5,1740.5C 900.435,1640.03 935.769,1539.69 971.5,1439.5 Z"/></g>
<g><path style="opacity:0.997" fill="#13a2d6" d="M 1022.5,1450.5 C 1026.81,1451.61 1031.14,1452.61 1035.5,1453.5C 1000.27,1551.29 965.605,1649.29 931.5,1747.5C 926.77,1747.72 922.103,1747.38 917.5,1746.5C 952.5,1647.83 987.5,1549.17 1022.5,1450.5 Z"/></g>
<g><path style="opacity:0.996" fill="#22aadc" d="M 1224.5,1451.5 C 1191.44,1543.69 1158.77,1636.02 1126.5,1728.5C 1106.72,1733.86 1086.72,1738.19 1066.5,1741.5C 1098.97,1648.77 1131.63,1556.1 1164.5,1463.5C 1185.26,1463.21 1205.26,1459.21 1224.5,1451.5 Z"/></g>
<g><path style="opacity:0.999" fill="#12a2d7" d="M 1035.5,1453.5 C 1036.83,1453.5 1038.17,1453.5 1039.5,1453.5C 1005.43,1551.72 970.76,1649.72 935.5,1747.5C 934.167,1747.5 932.833,1747.5 931.5,1747.5C 965.605,1649.29 1000.27,1551.29 1035.5,1453.5 Z"/></g>
<g><path style="opacity:0.996" fill="#15a2d7" d="M 1039.5,1453.5 C 1041.95,1454.07 1044.29,1454.73 1046.5,1455.5C 1011.46,1552.95 976.792,1650.62 942.5,1748.5C 939.941,1748.8 937.607,1748.47 935.5,1747.5C 970.76,1649.72 1005.43,1551.72 1039.5,1453.5 Z"/></g>
<g><path style="opacity:0.998" fill="#15a3d8" d="M 1046.5,1455.5 C 1055.83,1456.5 1065.17,1457.5 1074.5,1458.5C 1040.7,1555.24 1006.7,1651.91 972.5,1748.5C 962.5,1748.5 952.5,1748.5 942.5,1748.5C 976.792,1650.62 1011.46,1552.95 1046.5,1455.5 Z"/></g>
<g><path style="opacity:0.998" fill="#19a4d8" d="M 1074.5,1458.5 C 1075.83,1458.83 1077.17,1459.17 1078.5,1459.5C 1043.97,1555.76 1009.64,1652.09 975.5,1748.5C 974.5,1748.5 973.5,1748.5 972.5,1748.5C 1006.7,1651.91 1040.7,1555.24 1074.5,1458.5 Z"/></g>
<g><path style="opacity:0.998" fill="#18a5d9" d="M 1078.5,1459.5 C 1083.17,1459.83 1087.83,1460.17 1092.5,1460.5C 1058.3,1556.42 1024.3,1652.42 990.5,1748.5C 985.5,1748.5 980.5,1748.5 975.5,1748.5C 1009.64,1652.09 1043.97,1555.76 1078.5,1459.5 Z"/></g>
<g><path style="opacity:0.997" fill="#1aa6d9" d="M 1092.5,1460.5 C 1105.81,1461.73 1119.14,1462.73 1132.5,1463.5C 1099.36,1557.58 1066.03,1651.58 1032.5,1745.5C 1018.54,1746.91 1004.54,1747.91 990.5,1748.5C 1024.3,1652.42 1058.3,1556.42 1092.5,1460.5 Z"/></g>
<g><path style="opacity:0.997" fill="#1da8db" d="M 1132.5,1463.5 C 1137.17,1463.5 1141.83,1463.5 1146.5,1463.5C 1113.5,1556.83 1080.5,1650.17 1047.5,1743.5C 1042.6,1744.57 1037.6,1745.24 1032.5,1745.5C 1066.03,1651.58 1099.36,1557.58 1132.5,1463.5 Z"/></g>
<g><path style="opacity:0.996" fill="#1fa9dc" d="M 1146.5,1463.5 C 1152.5,1463.5 1158.5,1463.5 1164.5,1463.5C 1131.63,1556.1 1098.97,1648.77 1066.5,1741.5C 1060.19,1742.35 1053.85,1743.02 1047.5,1743.5C 1080.5,1650.17 1113.5,1556.83 1146.5,1463.5 Z"/></g>
</svg>
